<svg width="778" height="164" viewBox="0 0 778 164" fill="none" xmlns="http://www.w3.org/2000/svg">
<path d="M37.4932 41.0758C35.9225 41.2121 35.0865 41.3289 35.0992 41.4068C35.1055 41.4523 34.7445 41.5236 34.1619 41.595C33.6362 41.6535 32.9585 41.7573 32.6609 41.8222C31.1155 42.1662 29.7856 42.5037 28.8482 42.8022C28.2719 42.9839 27.5182 43.2176 27.1762 43.3279C24.2312 44.2235 20.6023 46.0213 17.7206 47.9943C16.2386 49.0132 14.0156 50.7785 12.825 51.8883C11.4633 53.1604 9.41763 55.2502 8.6513 56.1653C6.85264 58.3071 5.28198 60.611 4.26865 62.623C3.78099 63.5835 2.57766 66.2769 2.21666 67.1985C1.53899 68.9573 0.74733 71.8584 0.386332 73.8833C0.0696664 75.6811 0 76.4209 0 78.1019C0 79.6984 0.0443332 80.2047 0.170999 80.1657C0.291332 80.1203 0.405332 79.6984 0.664997 78.3615C0.797997 77.667 0.93733 76.9466 0.968996 76.7714C1.01966 76.5183 1.026 76.6091 0.99433 77.1932C0.968996 77.6021 0.949996 78.6146 0.949996 79.4453C0.949996 81.1003 0.987996 81.2755 1.235 80.8472C1.34266 80.6719 1.41866 80.3345 1.52633 79.627L1.67199 78.6535L1.63399 79.8931C1.61499 80.7304 1.62766 81.3274 1.67833 81.7298C1.76066 82.3204 1.76066 82.3269 1.84299 82.1257C1.90633 81.9765 2.05833 80.6525 2.05833 80.2696C2.05833 80.2566 2.10266 80.2436 2.15333 80.2436C2.31166 80.2436 2.55866 79.2571 2.95132 77.057C3.15399 75.8952 3.40732 74.5648 3.51499 74.104C3.73665 73.1564 4.01532 72.1699 4.05332 72.2088C4.07232 72.2218 4.04065 72.462 3.98998 72.741C3.87599 73.3381 3.88232 73.2992 3.95832 73.2992C3.99632 73.2992 4.02165 73.2473 4.02165 73.1824C4.02798 73.1045 4.05332 73.124 4.12298 73.2538C4.17365 73.3511 4.24332 73.416 4.28132 73.3965C4.31298 73.3706 4.43965 73.1564 4.55998 72.9228C4.68665 72.6632 4.77532 72.5398 4.78165 72.6177C4.78165 72.6956 4.80698 72.78 4.83865 72.8124C4.87031 72.8514 4.87031 73.1953 4.83865 73.5912C4.76898 74.5842 4.86398 75.376 5.04765 75.376C5.12998 75.376 5.31365 74.9152 5.73164 73.6367C6.15598 72.3711 6.18131 72.3127 6.23831 72.4879C6.26998 72.5788 6.33331 72.4944 6.49164 72.1245C6.96664 71.0536 8.29664 68.4056 8.8033 67.536C9.44296 66.4262 9.78496 65.9199 11.5076 63.5575C13.3569 61.0264 14.1613 60.0269 15.7636 58.3071C16.5553 57.4568 16.6883 57.366 16.1816 58.015C15.2759 59.1897 14.8263 60.0594 15.1303 60.0594C15.2443 60.0594 15.9156 59.5272 17.1633 58.4433C20.9189 55.1723 23.4649 53.394 26.7076 51.791C30.2479 50.0322 33.8515 49.0132 38.0949 48.5589C39.1589 48.4486 43.1172 48.4486 44.1748 48.5589C46.2332 48.7796 48.3675 49.1885 50.0395 49.6752C60.9391 52.8424 69.4447 61.1951 72.9534 72.1764C73.7071 74.5453 74.1947 77.018 74.4607 79.8217C74.562 80.9315 74.562 84.248 74.4607 85.4032C74.0617 89.8554 72.9091 94.0156 70.9331 98.1238C68.3174 103.576 64.3338 108.235 59.3431 111.688C53.7508 115.55 47.4935 117.523 40.1848 117.73C34.3772 117.899 28.8799 116.601 23.2749 113.733C22.3819 113.278 22.6036 113.486 23.5916 114.031C27.7146 116.309 32.1479 117.659 37.1449 118.159C38.2849 118.269 42.3318 118.269 43.4782 118.159C52.0725 117.302 59.3811 113.83 65.4801 107.697C66.1324 107.035 66.9621 106.159 67.3104 105.75C68.1781 104.737 68.2351 104.685 67.7601 105.36C67.6461 105.523 67.5574 105.704 67.5637 105.763C67.5827 105.912 66.1387 107.567 65.0304 108.677C62.5668 111.13 59.9258 113.135 57.0314 114.726C55.4608 115.589 52.5665 116.698 50.3118 117.296C47.5758 118.022 45.5048 118.315 41.9582 118.47C41.0715 118.509 40.1088 118.568 39.8238 118.607C38.5382 118.762 34.8775 118.34 32.4582 117.75C26.8532 116.38 21.6346 113.681 17.0999 109.8C16.3463 109.151 14.5476 107.366 13.3886 106.107C12.4576 105.101 11.4063 103.751 10.545 102.453C10.3233 102.122 10.1333 101.869 10.1143 101.888C10.0193 101.985 11.666 104.276 12.7046 105.497C12.996 105.841 13.4583 106.386 13.7306 106.71C14.4273 107.534 16.4539 109.553 17.3533 110.332C21.0013 113.447 25.0229 115.725 29.4816 117.198C30.7862 117.633 32.7622 118.139 34.0099 118.373C34.4975 118.457 35.0422 118.561 35.2132 118.594C35.4032 118.626 35.4602 118.652 35.3589 118.659C35.0232 118.671 32.9142 118.269 31.6475 117.945C29.2092 117.328 26.7772 116.426 24.5732 115.316C19.1836 112.603 14.8073 108.897 11.3176 104.075C10.9503 103.569 10.64 103.167 10.621 103.186C10.583 103.219 11.0516 103.9 11.742 104.809C14.8833 108.943 18.7846 112.337 23.1799 114.751C28.7659 117.815 35.1499 119.333 41.7048 119.158C42.5598 119.139 43.4972 119.106 43.7948 119.087L44.3332 119.061L43.7758 119.152C42.7498 119.314 41.1792 119.398 39.4249 119.398C35.4982 119.392 32.5405 118.918 29.1649 117.756C26.0742 116.692 22.5592 114.875 19.9183 112.98C13.5026 108.378 8.6513 101.94 6.18131 94.762C5.76964 93.5548 5.64931 93.6132 6.04198 94.8269C8.01164 100.954 11.9003 106.853 16.8909 111.299C17.1633 111.539 17.3849 111.753 17.3849 111.766C17.3849 111.785 17.2203 111.662 17.0239 111.487C14.7883 109.566 12.8313 107.45 11.0833 105.068C9.65196 103.121 8.65763 101.434 7.27064 98.6106C6.73231 97.5203 6.25098 96.5857 6.20031 96.5338C6.12431 96.4559 6.11164 96.4559 6.11164 96.5662C6.11164 96.722 6.23198 97.1308 6.45364 97.7279C6.54231 97.9681 6.60564 98.1952 6.58664 98.2277C6.47898 98.4029 8.48663 102.083 9.72796 103.978C11.9636 107.392 14.9973 110.656 18.3033 113.213C19.2279 113.921 20.9569 115.095 21.9766 115.706C23.0152 116.322 23.1419 116.419 22.4199 116.03C20.6973 115.115 18.3413 113.466 16.5299 111.915C13.6863 109.488 11.2986 106.775 9.29097 103.686C8.5563 102.57 7.80264 101.272 7.84697 101.226C7.89764 101.174 7.50497 100.408 7.34664 100.266C7.27697 100.194 7.11864 99.9021 7.00464 99.6165C6.89064 99.331 6.64364 98.8053 6.45998 98.4483C5.78231 97.1503 4.78798 94.3206 4.24332 92.1594C3.54665 89.3817 3.19832 87.0322 3.07166 84.1701C2.98299 82.275 2.96399 82.1322 2.95766 83.2939C2.92599 86.1106 3.46432 89.81 4.36998 93.0356C5.41498 96.7414 7.02997 100.356 9.06297 103.524C9.3923 104.036 9.64563 104.491 9.62663 104.523C9.55063 104.64 10.45 105.899 12.0016 107.852C12.1093 107.989 12.027 107.943 11.7483 107.703C11.2796 107.307 11.1973 107.353 11.4886 107.846L11.685 108.183L11.3936 107.859C10.9123 107.333 9.67096 105.724 9.0123 104.776C6.96664 101.83 5.19965 98.3834 4.04065 95.0735C3.86332 94.5737 3.68599 94.074 3.64799 93.9702L3.57832 93.7755L3.60365 94.0026C3.61632 94.1259 3.80632 94.7425 4.02165 95.3655C5.96598 100.941 9.0693 105.983 13.1416 110.169C14.4336 111.493 15.1239 112.129 16.5616 113.311C18.1196 114.589 18.8796 115.16 20.1716 116.037C25.6372 119.755 31.7615 121.884 38.3609 122.364C39.7288 122.462 42.5155 122.442 43.9278 122.325C48.6841 121.936 53.3835 120.625 57.6584 118.496C61.3128 116.679 65.0241 114.096 67.7157 111.5C68.0767 111.156 68.3807 110.877 68.3934 110.877C68.5011 110.877 68.1591 111.331 67.7474 111.727C65.2204 114.2 61.5028 116.815 58.1524 118.47C52.8071 121.118 47.2782 122.436 41.1982 122.527C35.0232 122.611 29.1649 121.287 23.5662 118.535C17.8599 115.731 12.92 111.578 9.0693 106.334C4.80065 100.525 2.21666 94.0221 1.36166 86.9284C1.178 85.3838 1.03866 84.4622 0.981663 84.4297C0.791664 84.3129 0.88033 86.4611 1.14 88.2459C2.12166 95.093 4.78798 101.557 8.8603 106.983C12.8883 112.35 18.2779 116.679 24.3516 119.431C31.3689 122.611 38.7915 123.63 46.5815 122.488C51.1478 121.819 56.0878 120.099 60.1601 117.756C65.2331 114.849 69.3307 111.143 72.9154 106.236C75.645 102.505 77.8617 97.8318 79.1664 93.0615C80.148 89.466 80.5787 86.2275 80.68 81.6714C80.6864 81.1911 80.6927 81.8337 80.68 83.0992C80.6737 84.6374 80.6294 85.7407 80.566 86.4092C79.882 93.1784 77.9377 99.0259 74.5051 104.64C74.1251 105.263 73.821 105.782 73.84 105.795C73.8844 105.847 74.3024 105.269 74.8154 104.452C77.925 99.4608 79.9074 93.7884 80.68 87.7072C80.984 85.3059 81.0917 81.6714 80.9144 79.4972C80.5344 74.714 79.54 70.4825 77.868 66.517C77.6907 66.0887 77.4564 65.4786 77.3487 65.1606C76.3734 62.1881 73.9477 58.0474 71.2814 54.8024C70.3504 53.6731 68.3744 51.6417 67.3231 50.7526C65.5054 49.2079 63.3204 47.6373 62.0348 46.9559C59.4001 45.567 58.3424 45.0608 56.6515 44.3858C56.1828 44.1976 55.3405 43.8536 54.7831 43.6264C51.7495 42.3609 48.3232 41.5366 44.4282 41.1342C42.9715 40.985 38.9562 40.9525 37.4932 41.0758ZM26.1566 44.3339C21.8182 46.0992 17.5686 48.7147 14.2183 51.6807C13.3189 52.4789 11.6786 54.1144 10.7983 55.0945C10.222 55.737 10.2346 55.6851 10.8553 54.8997C12.5083 52.8099 15.7193 50.0387 18.8099 48.0397C20.9506 46.6508 23.8766 45.1127 25.6499 44.4442C26.2199 44.23 26.6379 44.1392 26.1566 44.3339ZM21.0013 48.0787C20.9569 48.1306 20.6656 48.3318 20.3426 48.5265C17.8789 50.0322 14.9086 52.466 13.0466 54.4909C12.369 55.2307 10.4373 57.1388 10.697 56.8143C10.792 56.691 11.2543 56.1653 11.7166 55.6461C14.1929 52.8813 17.0619 50.467 20.2603 48.4616C20.6783 48.202 21.0329 47.9878 21.0456 47.9878C21.0646 47.9878 21.0393 48.0267 21.0013 48.0787ZM7.25164 61.3899C7.25164 61.4028 7.13764 61.6105 6.99831 61.8442C6.67531 62.3828 6.13064 63.4926 5.67464 64.544C5.47831 64.9919 5.25665 65.4202 5.18698 65.4981C4.93998 65.7707 3.53399 69.0871 3.13499 70.3462C3.00199 70.781 2.88166 71.0147 2.88166 70.8524C2.88166 70.6058 3.76832 68.1136 4.30665 66.835C4.94631 65.3164 5.97864 63.3239 6.97297 61.6624C7.13131 61.4028 7.25164 61.2795 7.25164 61.3899ZM4.49032 67.5684C3.97099 68.8405 3.10965 71.4949 2.79932 72.78C2.56499 73.7535 2.27999 75.3501 2.06466 76.8558C1.99499 77.3295 1.91266 77.7579 1.88099 77.7968C1.84933 77.8423 1.80499 77.9331 1.78599 78.0045C1.70999 78.2706 1.81766 77.3815 2.03299 75.9536C2.26732 74.3636 2.56499 73.0396 3.06532 71.3457C3.53399 69.7361 4.64232 66.7442 4.69932 66.9194C4.71198 66.9584 4.61698 67.2504 4.49032 67.5684ZM1.08933 76.3625C1.07033 76.4144 1.05133 76.395 1.05133 76.3236C1.045 76.2522 1.064 76.2132 1.083 76.2392C1.102 76.2587 1.10833 76.3171 1.08933 76.3625ZM1.89999 78.6795C1.87466 78.8417 1.83666 78.9391 1.82399 78.8937C1.80499 78.8482 1.81133 78.6405 1.84299 78.4393C1.87466 78.2057 1.89999 78.1278 1.91899 78.2252C1.93166 78.3095 1.92533 78.5172 1.89999 78.6795ZM15.7129 111.338C19.4876 114.732 23.8892 117.309 28.6582 118.925C30.9002 119.684 33.4525 120.262 36.0872 120.612C36.9739 120.729 37.3349 120.8 38.0632 120.995C38.4242 121.092 37.5375 121.034 36.2202 120.872C27.6892 119.814 19.8423 115.894 13.9966 109.767L13.2366 108.969L14.0979 109.812C14.5666 110.28 15.2949 110.961 15.7129 111.338ZM35.8339 118.71C35.7895 118.723 35.7009 118.723 35.6439 118.71C35.5805 118.691 35.6185 118.678 35.7199 118.678C35.8275 118.678 35.8719 118.691 35.8339 118.71Z" fill="url(#paint0_angular_3_44)"/>
<path d="M72.7317 107.353C70.021 110.883 66.8987 113.836 63.2697 116.296C58.2158 119.729 52.5538 121.929 46.7082 122.747C45.4415 122.929 45.2642 122.961 45.3655 122.994C45.4922 123.046 47.4618 122.76 48.7031 122.52C54.7134 121.332 60.3374 118.775 65.2964 114.959C67.5067 113.265 69.584 111.286 71.3953 109.163C72.206 108.209 73.1433 106.989 73.099 106.944C73.0863 106.924 72.9153 107.113 72.7317 107.353Z" fill="url(#paint1_angular_3_44)"/>
<path d="M78.9561 81.0768C77.366 81.2147 76.5197 81.333 76.5325 81.4118C76.5389 81.4578 76.1735 81.53 75.5836 81.6023C75.0515 81.6614 74.3654 81.7665 74.0641 81.8322C72.4997 82.1804 71.1533 82.522 70.2044 82.8242C69.6209 83.0081 68.858 83.2446 68.5117 83.3563C65.5304 84.2628 61.8566 86.0825 58.9394 88.0796C57.4391 89.1109 55.1886 90.8978 53.9833 92.0211C52.6048 93.3087 50.5339 95.424 49.7581 96.3503C47.9372 98.5181 46.3472 100.85 45.3214 102.887C44.8277 103.859 43.6095 106.585 43.244 107.518C42.558 109.298 41.7566 112.235 41.3911 114.284C41.0705 116.104 41 116.853 41 118.554C41 120.17 41.0449 120.683 41.1731 120.643C41.2949 120.597 41.4103 120.17 41.6732 118.817C41.8078 118.114 41.9489 117.385 41.981 117.208C42.0323 116.951 42.0387 117.043 42.0066 117.635C41.981 118.048 41.9617 119.073 41.9617 119.914C41.9617 121.589 42.0002 121.767 42.2502 121.333C42.3592 121.156 42.4362 120.814 42.5452 120.098L42.6926 119.113L42.6542 120.367C42.6349 121.215 42.6478 121.819 42.699 122.227C42.7824 122.824 42.7824 122.831 42.8657 122.627C42.9299 122.476 43.0837 121.136 43.0837 120.748C43.0837 120.735 43.1286 120.722 43.1799 120.722C43.3402 120.722 43.5902 119.724 43.9878 117.497C44.1929 116.321 44.4494 114.974 44.5584 114.508C44.7828 113.549 45.0649 112.55 45.1034 112.589C45.1226 112.603 45.0905 112.846 45.0392 113.128C44.9238 113.732 44.9302 113.693 45.0072 113.693C45.0457 113.693 45.0713 113.641 45.0713 113.575C45.0777 113.496 45.1034 113.516 45.1739 113.647C45.2252 113.746 45.2957 113.811 45.3342 113.792C45.3662 113.765 45.4945 113.549 45.6163 113.312C45.7445 113.049 45.8343 112.924 45.8407 113.003C45.8407 113.082 45.8663 113.168 45.8984 113.2C45.9304 113.24 45.9304 113.588 45.8984 113.989C45.8279 114.994 45.924 115.795 46.11 115.795C46.1933 115.795 46.3792 115.329 46.8024 114.035C47.232 112.754 47.2576 112.695 47.3153 112.872C47.3474 112.964 47.4115 112.878 47.5718 112.504C48.0526 111.42 49.3991 108.74 49.912 107.86C50.5595 106.736 50.9058 106.224 52.6497 103.833C54.5219 101.271 55.3361 100.259 56.9582 98.5181C57.7597 97.6575 57.8943 97.5656 57.3814 98.2225C56.4645 99.4115 56.0093 100.292 56.3171 100.292C56.4325 100.292 57.1121 99.7531 58.3752 98.6561C62.1772 95.3452 64.7546 93.5452 68.0373 91.9226C71.6213 90.1423 75.2695 89.1109 79.5652 88.6511C80.6423 88.5394 84.6495 88.5394 85.7202 88.6511C87.8039 88.8745 89.9646 89.2883 91.6572 89.781C102.691 92.9868 111.302 101.441 114.854 112.557C115.617 114.954 116.111 117.457 116.38 120.295C116.483 121.419 116.483 124.775 116.38 125.945C115.976 130.451 114.809 134.662 112.809 138.82C110.161 144.339 106.128 149.055 101.076 152.55C95.4144 156.459 89.0798 158.456 81.681 158.666C75.8016 158.837 70.2364 157.523 64.5623 154.619C63.6582 154.16 63.8826 154.37 64.8828 154.922C69.0567 157.227 73.5448 158.594 78.6034 159.1C79.7575 159.211 83.8545 159.211 85.0149 159.1C93.7153 158.233 101.114 154.718 107.288 148.51C107.949 147.84 108.789 146.953 109.141 146.539C110.02 145.515 110.077 145.462 109.597 146.145C109.481 146.309 109.391 146.493 109.398 146.552C109.417 146.704 107.955 148.379 106.833 149.502C104.339 151.985 101.666 154.015 98.7355 155.625C97.1455 156.498 94.2154 157.622 91.9329 158.226C89.1632 158.962 87.0666 159.257 83.4762 159.415C82.5786 159.454 81.604 159.514 81.3155 159.553C80.014 159.711 76.3081 159.284 73.8589 158.686C68.1848 157.3 62.9017 154.567 58.311 150.639C57.5481 149.982 55.7272 148.175 54.5539 146.901C53.6114 145.882 52.5471 144.516 51.6751 143.202C51.4507 142.867 51.2584 142.611 51.2392 142.631C51.143 142.729 52.81 145.048 53.8615 146.283C54.1564 146.631 54.6244 147.183 54.9001 147.512C55.6054 148.346 57.6571 150.389 58.5675 151.177C62.2605 154.33 66.3318 156.636 70.8455 158.127C72.1663 158.568 74.1667 159.08 75.4297 159.317C75.9234 159.402 76.4748 159.507 76.6479 159.54C76.8403 159.573 76.898 159.599 76.7954 159.606C76.4556 159.619 74.3206 159.211 73.0383 158.883C70.5698 158.259 68.1078 157.346 65.8766 156.222C60.4204 153.476 55.9901 149.725 52.4573 144.844C52.0855 144.332 51.7713 143.925 51.7521 143.944C51.7136 143.977 52.1881 144.667 52.8869 145.587C56.067 149.771 60.0165 153.207 64.4661 155.651C70.121 158.752 76.5838 160.289 83.2197 160.111C84.0853 160.092 85.0342 160.059 85.3355 160.039L85.8805 160.013L85.3163 160.105C84.2776 160.269 82.6876 160.354 80.9116 160.354C76.9364 160.348 73.9423 159.868 70.5249 158.692C67.3961 157.615 63.8378 155.776 61.1642 153.857C54.6693 149.2 49.7581 142.683 47.2576 135.418C46.8409 134.196 46.7191 134.255 47.1166 135.483C49.1105 141.685 53.0472 147.656 58.0995 152.156C58.3752 152.399 58.5996 152.616 58.5996 152.629C58.5996 152.649 58.4329 152.524 58.2341 152.347C55.9708 150.402 53.9897 148.26 52.2201 145.85C50.7711 143.879 49.7645 142.171 48.3604 139.313C47.8154 138.21 47.3281 137.264 47.2769 137.211C47.1999 137.132 47.1871 137.132 47.1871 137.244C47.1871 137.401 47.3089 137.815 47.5333 138.42C47.6231 138.663 47.6872 138.893 47.668 138.926C47.559 139.103 49.5914 142.828 50.8481 144.746C53.1113 148.201 56.1824 151.506 59.5292 154.094C60.4653 154.81 62.2156 155.999 63.2479 156.617C64.2994 157.241 64.4276 157.339 63.6967 156.945C61.9528 156.019 59.5677 154.35 57.734 152.78C54.8552 150.323 52.4381 147.577 50.4057 144.45C49.6619 143.32 48.899 142.007 48.9438 141.961C48.9951 141.908 48.5976 141.133 48.4373 140.988C48.3668 140.916 48.2065 140.62 48.0911 140.331C47.9757 140.042 47.7257 139.51 47.5397 139.149C46.8537 137.835 45.8471 134.971 45.2957 132.783C44.5904 129.972 44.2378 127.594 44.1096 124.697C44.0198 122.778 44.0006 122.634 43.9942 123.81C43.9621 126.661 44.5071 130.405 45.4239 133.67C46.4818 137.421 48.1168 141.08 50.1749 144.286C50.5083 144.805 50.7647 145.265 50.7455 145.298C50.6685 145.416 51.579 146.69 53.1498 148.668C53.2588 148.806 53.1754 148.76 52.8933 148.517C52.4189 148.116 52.3355 148.162 52.6305 148.661L52.8292 149.003L52.5343 148.674C52.047 148.142 50.7904 146.513 50.1236 145.554C48.0526 142.572 46.2638 139.083 45.0905 135.733C44.911 135.227 44.7315 134.721 44.693 134.616L44.6225 134.419L44.6481 134.649C44.661 134.774 44.8533 135.398 45.0713 136.029C47.0396 141.672 50.1813 146.776 54.3039 151.013C55.6118 152.353 56.3107 152.997 57.7661 154.193C59.3433 155.487 60.1127 156.065 61.4206 156.952C66.9537 160.716 73.1537 162.87 79.8344 163.357C81.2193 163.455 84.0404 163.435 85.4702 163.317C90.2852 162.923 95.0425 161.596 99.3703 159.441C103.07 157.602 106.827 154.987 109.552 152.36C109.917 152.012 110.225 151.729 110.238 151.729C110.347 151.729 110.001 152.189 109.584 152.59C107.026 155.092 103.262 157.74 99.8704 159.415C94.4591 162.095 88.8618 163.429 82.7068 163.521C76.4556 163.606 70.525 162.266 64.8572 159.481C59.0804 156.643 54.0795 152.439 50.1813 147.131C45.8599 141.251 43.244 134.669 42.3785 127.489C42.1925 125.925 42.0515 124.992 41.9938 124.959C41.8014 124.841 41.8912 127.016 42.1541 128.822C43.1479 135.753 45.8471 142.296 49.9697 147.787C54.0474 153.22 59.5036 157.602 65.6522 160.387C72.7562 163.606 80.2704 164.638 88.1566 163.481C92.7793 162.805 97.7802 161.064 101.903 158.692C107.038 155.749 111.187 151.998 114.816 147.032C117.579 143.255 119.823 138.525 121.144 133.696C122.138 130.057 122.573 126.779 122.676 122.167C122.682 121.681 122.689 122.332 122.676 123.613C122.67 125.17 122.625 126.286 122.561 126.963C121.868 133.815 119.9 139.734 116.425 145.416C116.04 146.047 115.732 146.572 115.752 146.585C115.797 146.638 116.22 146.053 116.739 145.225C119.887 140.174 121.894 134.432 122.676 128.277C122.984 125.846 123.093 122.167 122.913 119.967C122.529 115.125 121.522 110.842 119.829 106.828C119.65 106.395 119.413 105.777 119.304 105.455C118.316 102.447 115.861 98.2553 113.161 94.9707C112.219 93.8277 110.219 91.7715 109.154 90.8715C107.314 89.308 105.102 87.7183 103.801 87.0285C101.133 85.6227 100.063 85.1103 98.3509 84.4271C97.8764 84.2366 97.0237 83.8884 96.4595 83.6585C93.3884 82.3775 89.9197 81.5432 85.9767 81.1359C84.502 80.9848 80.4371 80.9519 78.9561 81.0768ZM67.4795 84.3745C63.0876 86.1614 58.7855 88.8088 55.3938 91.8109C54.4834 92.6189 52.8228 94.2744 51.9316 95.2663C51.3482 95.9167 51.361 95.8641 51.9893 95.0693C53.6627 92.954 56.9133 90.1489 60.0421 88.1256C62.2092 86.7197 65.1713 85.1628 66.9666 84.4862C67.5436 84.2694 67.9668 84.1774 67.4795 84.3745ZM62.2605 88.165C62.2156 88.2175 61.9207 88.4212 61.5937 88.6183C59.0997 90.1423 56.0927 92.6058 54.2077 94.6554C53.5217 95.4043 51.5662 97.3356 51.829 97.0072C51.9252 96.8824 52.3932 96.3503 52.8613 95.8247C55.3682 93.0262 58.2726 90.5825 61.5104 88.5526C61.9335 88.2898 62.2926 88.073 62.3054 88.073C62.3246 88.073 62.299 88.1124 62.2605 88.165ZM48.3412 101.639C48.3412 101.652 48.2258 101.862 48.0847 102.098C47.7577 102.644 47.2063 103.767 46.7447 104.831C46.5459 105.284 46.3215 105.718 46.251 105.797C46.001 106.073 44.5776 109.43 44.1737 110.704C44.039 111.144 43.9172 111.381 43.9172 111.216C43.9172 110.967 44.8148 108.444 45.3598 107.15C46.0074 105.613 47.0525 103.596 48.0591 101.914C48.2193 101.652 48.3412 101.527 48.3412 101.639ZM45.5458 107.892C45.02 109.18 44.148 111.867 43.8339 113.168C43.5967 114.153 43.3081 115.769 43.0901 117.293C43.0196 117.773 42.9363 118.206 42.9042 118.246C42.8722 118.292 42.8273 118.384 42.808 118.456C42.7311 118.725 42.8401 117.825 43.0581 116.38C43.2953 114.77 43.5967 113.43 44.1032 111.716C44.5776 110.087 45.6996 107.058 45.7573 107.236C45.7702 107.275 45.674 107.571 45.5458 107.892ZM42.1028 116.794C42.0835 116.846 42.0643 116.827 42.0643 116.754C42.0579 116.682 42.0771 116.643 42.0964 116.669C42.1156 116.689 42.122 116.748 42.1028 116.794ZM42.9235 119.139C42.8978 119.303 42.8593 119.402 42.8465 119.356C42.8273 119.31 42.8337 119.1 42.8657 118.896C42.8978 118.659 42.9234 118.581 42.9427 118.679C42.9555 118.765 42.9491 118.975 42.9235 119.139ZM56.9069 152.195C60.7282 155.631 65.1842 158.239 70.012 159.875C72.2817 160.644 74.8655 161.228 77.5327 161.583C78.4303 161.701 78.7958 161.773 79.5331 161.97C79.8986 162.069 79.001 162.01 77.6674 161.846C69.0311 160.775 61.0872 156.807 55.1694 150.606L54.4 149.798L55.272 150.652C55.7464 151.125 56.4838 151.814 56.9069 152.195ZM77.2763 159.658C77.2314 159.671 77.1416 159.671 77.0839 159.658C77.0198 159.638 77.0583 159.625 77.1609 159.625C77.2698 159.625 77.3147 159.638 77.2763 159.658Z" fill="url(#paint2_angular_3_44)"/>
<path d="M114.63 148.162C111.885 151.736 108.725 154.725 105.051 157.214C99.9345 160.689 94.2026 162.916 88.2848 163.744C87.0025 163.928 86.823 163.961 86.9256 163.994C87.0538 164.046 89.0478 163.757 90.3044 163.514C96.3889 162.312 102.082 159.724 107.103 155.861C109.34 154.146 111.443 152.143 113.277 149.995C114.097 149.029 115.046 147.794 115.001 147.748C114.989 147.728 114.816 147.919 114.63 148.162Z" fill="url(#paint3_angular_3_44)"/>
<path d="M125.581 122.924C127.19 122.788 128.047 122.671 128.034 122.593C128.028 122.548 128.398 122.476 128.995 122.405C129.533 122.347 130.228 122.243 130.533 122.178C132.116 121.834 133.479 121.496 134.439 121.198C135.03 121.016 135.802 120.782 136.153 120.672C139.17 119.776 142.889 117.979 145.842 116.006C147.36 114.987 149.638 113.221 150.858 112.112C152.254 110.84 154.35 108.75 155.135 107.835C156.978 105.693 158.588 103.389 159.626 101.377C160.126 100.416 161.359 97.7231 161.729 96.8015C162.423 95.0427 163.234 92.1416 163.604 90.1167C163.929 88.3189 164 87.5791 164 85.8981C164 84.3016 163.955 83.7953 163.825 83.8343C163.701 83.8797 163.585 84.3016 163.319 85.6385C163.182 86.333 163.04 87.0534 163.007 87.2286C162.955 87.4817 162.949 87.3909 162.981 86.8067C163.007 86.3979 163.027 85.3854 163.027 84.5547C163.027 82.8997 162.988 82.7245 162.735 83.1528C162.624 83.3281 162.546 83.6655 162.436 84.373L162.287 85.3465L162.326 84.1069C162.345 83.2696 162.332 82.6726 162.28 82.2702C162.196 81.6796 162.196 81.6731 162.111 81.8743C162.047 82.0235 161.891 83.3475 161.891 83.7304C161.891 83.7434 161.845 83.7564 161.794 83.7564C161.631 83.7564 161.378 84.7429 160.976 86.943C160.768 88.1048 160.509 89.4352 160.398 89.896C160.171 90.8436 159.886 91.8301 159.847 91.7912C159.827 91.7782 159.86 91.538 159.911 91.259C160.028 90.6619 160.022 90.7008 159.944 90.7008C159.905 90.7008 159.879 90.7527 159.879 90.8176C159.873 90.8955 159.847 90.876 159.775 90.7462C159.723 90.6489 159.652 90.584 159.613 90.6035C159.581 90.6294 159.451 90.8436 159.327 91.0772C159.198 91.3368 159.107 91.4602 159.1 91.3823C159.1 91.3044 159.074 91.22 159.042 91.1876C159.009 91.1486 159.009 90.8047 159.042 90.4088C159.113 89.4158 159.016 88.624 158.828 88.624C158.743 88.624 158.555 89.0848 158.127 90.3633C157.692 91.6289 157.666 91.6873 157.608 91.5121C157.575 91.4212 157.51 91.5056 157.348 91.8755C156.861 92.9464 155.499 95.5944 154.979 96.464C154.324 97.5738 153.973 98.0801 152.208 100.442C150.313 102.974 149.489 103.973 147.847 105.693C147.036 106.543 146.9 106.634 147.419 105.985C148.347 104.81 148.808 103.941 148.496 103.941C148.379 103.941 147.691 104.473 146.413 105.557C142.565 108.828 139.956 110.606 136.633 112.209C133.005 113.968 129.313 114.987 124.965 115.441C123.874 115.551 119.818 115.551 118.734 115.441C116.625 115.22 114.438 114.812 112.725 114.325C101.556 111.158 92.8406 102.805 89.2453 91.8236C88.473 89.4547 87.9733 86.982 87.7007 84.1783C87.5969 83.0685 87.5969 79.752 87.7007 78.5968C88.1096 74.1446 89.2907 69.9844 91.3155 65.8762C93.9957 60.4245 98.0778 55.7646 103.192 52.3119C108.922 48.4502 115.334 46.4773 122.823 46.2696C128.774 46.1008 134.407 47.3989 140.15 50.2675C141.065 50.7218 140.838 50.5141 139.826 49.9689C135.601 47.6909 131.058 46.341 125.938 45.8412C124.77 45.7309 120.623 45.7309 119.448 45.8412C110.642 46.6979 103.153 50.1701 96.9031 56.3033C96.2347 56.9653 95.3845 57.8414 95.0276 58.2503C94.1385 59.2628 94.0801 59.3147 94.5668 58.6397C94.6837 58.4775 94.7745 58.2957 94.768 58.2373C94.7486 58.0881 96.2282 56.4331 97.3639 55.3233C99.8884 52.87 102.595 50.8646 105.56 49.2745C107.17 48.4113 110.136 47.3015 112.446 46.7044C115.249 45.9775 117.372 45.6855 121.006 45.5297C121.914 45.4908 122.901 45.4324 123.193 45.3934C124.51 45.2376 128.261 45.6595 130.74 46.2501C136.484 47.6195 141.831 50.3194 146.478 54.2005C147.25 54.8495 149.093 56.6343 150.281 57.8933C151.235 58.8993 152.312 60.2493 153.195 61.5473C153.422 61.8783 153.617 62.1314 153.636 62.1119C153.733 62.0146 152.046 59.7236 150.982 58.5034C150.683 58.1594 150.209 57.6143 149.93 57.2898C149.216 56.4655 147.14 54.4471 146.218 53.6683C142.48 50.553 138.359 48.275 133.791 46.8018C132.454 46.3669 130.429 45.8607 129.15 45.6271C128.651 45.5427 128.093 45.4388 127.917 45.4064C127.723 45.3739 127.664 45.348 127.768 45.3415C128.112 45.3285 130.273 45.7309 131.571 46.0554C134.07 46.672 136.562 47.5741 138.82 48.6839C144.343 51.3968 148.827 55.1026 152.403 59.9248C152.779 60.431 153.097 60.8334 153.117 60.8139C153.156 60.7814 152.676 60.1 151.968 59.1914C148.749 55.0572 144.752 51.6628 140.248 49.2485C134.524 46.1852 127.982 44.6665 121.265 44.8418C120.389 44.8612 119.429 44.8937 119.124 44.9131L118.572 44.9391L119.143 44.8482C120.195 44.686 121.804 44.6016 123.602 44.6016C127.625 44.6081 130.656 45.0819 134.115 46.2436C137.282 47.308 140.884 49.1252 143.59 51.0203C150.164 55.6218 155.135 62.06 157.666 69.238C158.088 70.4452 158.211 70.3868 157.809 69.1731C155.791 63.0465 151.806 57.147 146.692 52.7013C146.413 52.4611 146.186 52.247 146.186 52.234C146.186 52.2145 146.355 52.3378 146.556 52.5131C148.847 54.4341 150.852 56.5499 152.643 58.9318C154.11 60.8788 155.129 62.5662 156.55 65.3894C157.101 66.4797 157.595 67.4143 157.647 67.4662C157.724 67.5441 157.737 67.5441 157.737 67.4338C157.737 67.278 157.614 66.8692 157.387 66.2721C157.296 66.0319 157.231 65.8048 157.251 65.7723C157.361 65.5971 155.304 61.9172 154.032 60.0221C151.741 56.6083 148.632 53.3438 145.245 50.7867C144.297 50.0793 142.526 48.9046 141.481 48.2945C140.416 47.6779 140.287 47.5806 141.027 47.97C142.792 48.8851 145.206 50.5336 147.062 52.0847C149.976 54.512 152.422 57.2249 154.48 60.3142C155.232 61.4305 156.005 62.7285 155.959 62.7739C155.907 62.8258 156.31 63.5917 156.472 63.7344C156.543 63.8058 156.706 64.0979 156.822 64.3835C156.939 64.669 157.192 65.1947 157.381 65.5517C158.075 66.8497 159.094 69.6794 159.652 71.8406C160.366 74.6183 160.723 76.9678 160.853 79.8299C160.943 81.725 160.963 81.8678 160.969 80.7061C161.002 77.8894 160.45 74.19 159.522 70.9644C158.451 67.2586 156.796 63.6436 154.713 60.4764C154.376 59.9637 154.116 59.5094 154.136 59.4769C154.214 59.3601 153.292 58.101 151.702 56.1475C151.592 56.0112 151.676 56.0566 151.962 56.2968C152.442 56.6927 152.526 56.6472 152.228 56.154L152.027 55.8165L152.325 56.141C152.818 56.6667 154.09 58.2763 154.765 59.2238C156.861 62.1703 158.672 65.6166 159.86 68.9265C160.041 69.4263 160.223 69.926 160.262 70.0298L160.333 70.2245L160.307 69.9974C160.294 69.8741 160.1 69.2575 159.879 68.6345C157.887 63.0595 154.707 58.0167 150.534 53.8305C149.21 52.5066 148.503 51.8705 147.029 50.6893C145.433 49.4108 144.654 48.8397 143.33 47.9635C137.73 44.2447 131.454 42.1159 124.692 41.6356C123.29 41.5383 120.435 41.5578 118.988 41.6746C114.114 42.064 109.298 43.375 104.918 45.5037C101.173 47.321 97.3704 49.904 94.6123 52.5001C94.2424 52.844 93.9308 53.1231 93.9179 53.1231C93.8075 53.1231 94.158 52.6688 94.5798 52.2729C97.1692 49.8002 100.979 47.1847 104.412 45.5297C109.889 42.8817 115.554 41.5643 121.785 41.4734C128.112 41.389 134.115 42.713 139.852 45.4648C145.699 48.2685 150.761 52.4222 154.707 57.6662C159.081 63.4748 161.729 69.9779 162.605 77.0716C162.793 78.6162 162.936 79.5378 162.994 79.5703C163.189 79.6871 163.098 77.5389 162.832 75.7541C161.826 68.907 159.094 62.4429 154.921 57.0172C150.793 51.6499 145.271 47.321 139.047 44.5692C131.857 41.389 124.251 40.3701 116.268 41.5123C111.589 42.1808 106.527 43.9007 102.354 46.2436C97.1562 49.1512 92.9574 52.857 89.2842 57.7635C86.4872 61.4954 84.2158 66.1682 82.8789 70.9385C81.873 74.534 81.4317 77.7725 81.3279 82.3286C81.3214 82.8089 81.3149 82.1663 81.3279 80.9008C81.3344 79.3626 81.3798 78.2593 81.4447 77.5908C82.1456 70.8216 84.1379 64.9741 87.6553 59.3601C88.0447 58.7371 88.3562 58.2179 88.3367 58.2049C88.2913 58.153 87.863 58.7306 87.3373 59.5483C84.1509 64.5392 82.1196 70.2116 81.3279 76.2928C81.0164 78.6941 80.906 82.3286 81.0878 84.5028C81.4771 89.286 82.496 93.5175 84.2093 97.483C84.391 97.9113 84.6311 98.5214 84.7414 98.8394C85.7409 101.812 88.2264 105.953 90.9586 109.198C91.9126 110.327 93.9373 112.358 95.0146 113.247C96.8772 114.792 99.1161 116.363 100.434 117.044C103.133 118.433 104.217 118.939 105.95 119.614C106.43 119.802 107.293 120.146 107.864 120.374C110.973 121.639 114.484 122.463 118.475 122.866C119.967 123.015 124.082 123.047 125.581 122.924ZM137.198 119.666C141.643 117.901 145.998 115.285 149.431 112.319C150.352 111.521 152.033 109.886 152.935 108.906C153.526 108.263 153.513 108.315 152.877 109.1C151.183 111.19 147.893 113.961 144.726 115.96C142.532 117.349 139.534 118.887 137.717 119.556C137.133 119.77 136.704 119.861 137.198 119.666ZM142.48 115.921C142.526 115.869 142.824 115.668 143.155 115.474C145.68 113.968 148.723 111.534 150.631 109.509C151.326 108.769 153.305 106.861 153.039 107.186C152.942 107.309 152.468 107.835 151.994 108.354C149.457 111.119 146.517 113.533 143.239 115.538C142.811 115.798 142.448 116.012 142.435 116.012C142.415 116.012 142.441 115.973 142.48 115.921ZM156.569 102.61C156.569 102.597 156.686 102.389 156.829 102.156C157.16 101.617 157.718 100.507 158.185 99.456C158.386 99.0081 158.614 98.5798 158.685 98.5019C158.938 98.2293 160.379 94.9129 160.788 93.6538C160.924 93.219 161.047 92.9853 161.047 93.1476C161.047 93.3942 160.139 95.8864 159.587 97.165C158.932 98.6836 157.874 100.676 156.855 102.338C156.693 102.597 156.569 102.72 156.569 102.61ZM159.399 96.4316C159.931 95.1595 160.814 92.5051 161.132 91.22C161.372 90.2465 161.664 88.6499 161.884 87.1442C161.956 86.6705 162.04 86.2421 162.073 86.2032C162.105 86.1577 162.15 86.0669 162.17 85.9955C162.248 85.7294 162.137 86.6185 161.917 88.0464C161.677 89.6364 161.372 90.9604 160.859 92.6543C160.379 94.2639 159.243 97.2558 159.185 97.0806C159.172 97.0416 159.269 96.7496 159.399 96.4316ZM162.884 87.6375C162.903 87.5856 162.923 87.605 162.923 87.6764C162.929 87.7478 162.91 87.7868 162.89 87.7608C162.871 87.7413 162.864 87.6829 162.884 87.6375ZM162.053 85.3205C162.079 85.1583 162.118 85.0609 162.131 85.1063C162.15 85.1518 162.144 85.3595 162.111 85.5607C162.079 85.7943 162.053 85.8722 162.034 85.7748C162.021 85.6905 162.027 85.4828 162.053 85.3205ZM147.899 52.6623C144.031 49.268 139.521 46.6914 134.634 45.0754C132.337 44.3161 129.721 43.7384 127.022 43.388C126.113 43.2711 125.743 43.1998 124.997 43.0051C124.627 42.9077 125.536 42.9661 126.885 43.1284C135.627 44.1863 143.668 48.1063 149.658 54.2329L150.437 55.0312L149.554 54.1875C149.074 53.7202 148.327 53.0388 147.899 52.6623ZM127.281 45.2896C127.327 45.2766 127.418 45.2766 127.476 45.2896C127.541 45.309 127.502 45.322 127.398 45.322C127.288 45.322 127.242 45.309 127.281 45.2896Z" fill="url(#paint4_angular_3_44)"/>
<path d="M89.4725 56.6473C92.2501 53.1167 95.4495 50.1637 99.1681 47.7039C104.347 44.2707 110.149 42.0705 116.139 41.2528C117.436 41.0711 117.618 41.0386 117.514 41.0062C117.385 40.9543 115.366 41.2398 114.094 41.4799C107.936 42.6676 102.173 45.2247 97.0914 49.0409C94.8265 50.7348 92.6979 52.7143 90.8418 54.8366C90.0111 55.7906 89.0507 57.0107 89.0961 57.0562C89.1091 57.0756 89.2843 56.8874 89.4725 56.6473Z" fill="url(#paint5_angular_3_44)"/>
<path d="M85.0439 80.9251C86.634 80.7905 87.4803 80.6751 87.4675 80.5981C87.4611 80.5533 87.8265 80.4827 88.4164 80.4122C88.9485 80.3545 89.6346 80.2519 89.9359 80.1878C91.5003 79.8481 92.8467 79.5147 93.7956 79.2198C94.3791 79.0403 95.142 78.8095 95.4883 78.7005C98.4696 77.8158 102.143 76.0399 105.061 74.091C106.561 73.0845 108.811 71.3407 110.017 70.2444C111.395 68.9879 113.466 66.9236 114.242 66.0196C116.063 63.904 117.653 61.6281 118.679 59.6407C119.172 58.6919 120.391 56.0314 120.756 55.121C121.442 53.3836 122.243 50.5179 122.609 48.5177C122.929 46.7419 123 46.011 123 44.3506C123 42.7735 122.955 42.2735 122.827 42.3119C122.705 42.3568 122.59 42.7735 122.327 44.0942C122.192 44.7801 122.051 45.4917 122.019 45.6648C121.968 45.9149 121.961 45.8251 121.993 45.2481C122.019 44.8442 122.038 43.8441 122.038 43.0235C122.038 41.3887 122 41.2156 121.75 41.6388C121.641 41.8119 121.564 42.1452 121.455 42.844L121.307 43.8057L121.346 42.5812C121.365 41.7542 121.352 41.1644 121.301 40.7669C121.218 40.1835 121.218 40.1771 121.134 40.3758C121.07 40.5233 120.916 41.8311 120.916 42.2093C120.916 42.2222 120.871 42.235 120.82 42.235C120.66 42.235 120.41 43.2095 120.012 45.3828C119.807 46.5303 119.551 47.8446 119.442 48.2997C119.217 49.2357 118.935 50.2102 118.897 50.1717C118.877 50.1589 118.909 49.9217 118.961 49.646C119.076 49.0562 119.07 49.0947 118.993 49.0947C118.954 49.0947 118.929 49.146 118.929 49.2101C118.922 49.287 118.897 49.2678 118.826 49.1396C118.775 49.0434 118.704 48.9793 118.666 48.9985C118.634 49.0242 118.506 49.2357 118.384 49.4665C118.255 49.723 118.166 49.8448 118.159 49.7679C118.159 49.6909 118.134 49.6076 118.102 49.5755C118.07 49.5371 118.07 49.1973 118.102 48.8062C118.172 47.8253 118.076 47.0432 117.89 47.0432C117.807 47.0432 117.621 47.4984 117.198 48.7613C116.768 50.0115 116.742 50.0692 116.685 49.8961C116.653 49.8063 116.589 49.8897 116.428 50.2551C115.947 51.3129 114.601 53.9286 114.088 54.7876C113.44 55.8839 113.094 56.384 111.35 58.7175C109.478 61.2178 108.664 62.2051 107.042 63.904C106.24 64.7438 106.106 64.8336 106.619 64.1925C107.535 63.0321 107.991 62.1731 107.683 62.1731C107.568 62.1731 106.888 62.6987 105.625 63.7694C101.823 67.0005 99.2454 68.7571 95.9627 70.3406C92.3787 72.078 88.7305 73.0845 84.4348 73.5333C83.3577 73.6423 79.3505 73.6423 78.2798 73.5333C76.1961 73.3153 74.0354 72.9114 72.3428 72.4306C61.3086 69.302 52.6979 61.0511 49.146 50.2038C48.383 47.8638 47.8893 45.4212 47.62 42.6517C47.5174 41.5554 47.5174 38.2794 47.62 37.1383C48.0239 32.7404 49.1908 28.6309 51.1912 24.5728C53.8392 19.1876 57.872 14.5845 62.9243 11.1739C68.5856 7.3594 74.9202 5.41046 82.319 5.20531C88.1984 5.03863 93.7636 6.32082 99.4377 9.15447C100.342 9.60323 100.117 9.39808 99.1172 8.85956C94.9433 6.60931 90.4552 5.27584 85.3966 4.78219C84.2425 4.67321 80.1455 4.67321 78.9851 4.78219C70.2847 5.62844 62.8858 9.0583 56.7115 15.1166C56.0511 15.7706 55.2112 16.636 54.8586 17.0399C53.9802 18.04 53.9225 18.0913 54.4034 17.4246C54.5188 17.2643 54.6085 17.0848 54.6021 17.0271C54.5829 16.8797 56.0447 15.2449 57.1667 14.1486C59.6608 11.7253 62.3344 9.74427 65.2645 8.17358C66.8545 7.32093 69.7846 6.22466 72.0671 5.63485C74.8368 4.91682 76.9334 4.62833 80.5238 4.47447C81.4214 4.436 82.396 4.3783 82.6845 4.33983C83.986 4.18597 87.6919 4.60269 90.1411 5.18609C95.8152 6.5388 101.098 9.20575 105.689 13.0395C106.452 13.6806 108.273 15.4436 109.446 16.6873C110.389 17.681 111.453 19.0145 112.325 20.2967C112.549 20.6237 112.742 20.8737 112.761 20.8545C112.857 20.7583 111.19 18.4952 110.139 17.29C109.844 16.9502 109.376 16.4117 109.1 16.0911C108.395 15.2769 106.343 13.2831 105.432 12.5138C101.739 9.43654 97.6682 7.1863 93.1545 5.73101C91.8337 5.30148 89.8333 4.80142 88.5703 4.57063C88.0766 4.48729 87.5252 4.38471 87.3521 4.35266C87.1597 4.3206 87.102 4.29496 87.2046 4.28855C87.5444 4.27573 89.6794 4.67321 90.9617 4.99376C93.4302 5.6028 95.8922 6.49392 98.1234 7.59019C103.58 10.27 108.01 13.9306 111.543 18.694C111.915 19.194 112.229 19.5915 112.248 19.5723C112.286 19.5402 111.812 18.8671 111.113 17.9695C107.933 13.8858 103.983 10.5328 99.5339 8.14794C93.879 5.12197 87.4162 3.62181 80.7803 3.79491C79.9147 3.81414 78.9658 3.84619 78.6645 3.86542L78.1195 3.89107L78.6837 3.80132C79.7224 3.64105 81.3124 3.5577 83.0884 3.5577C87.0636 3.56411 90.0577 4.03211 93.4751 5.17967C96.6039 6.23107 100.162 8.02613 102.836 9.89813C109.331 14.4435 114.242 20.8032 116.742 27.8937C117.159 29.0861 117.281 29.0284 116.883 27.8296C114.889 21.7776 110.953 15.9501 105.901 11.5586C105.625 11.3214 105.4 11.1098 105.4 11.097C105.4 11.0777 105.567 11.1996 105.766 11.3727C108.029 13.2703 110.01 15.3603 111.78 17.7131C113.229 19.6364 114.235 21.3032 115.64 24.092C116.185 25.169 116.672 26.0922 116.723 26.1435C116.8 26.2204 116.813 26.2204 116.813 26.1114C116.813 25.9576 116.691 25.5537 116.467 24.9639C116.377 24.7267 116.313 24.5023 116.332 24.4702C116.441 24.2971 114.409 20.6621 113.152 18.7901C110.889 15.418 107.818 12.1933 104.471 9.66734C103.535 8.96855 101.784 7.80816 100.752 7.20553C99.7006 6.59649 99.5724 6.50033 100.303 6.88499C102.047 7.78893 104.432 9.41731 106.266 10.9495C109.145 13.3472 111.562 16.027 113.594 19.0786C114.338 20.1813 115.101 21.4635 115.056 21.5084C115.005 21.5597 115.402 22.3162 115.563 22.4572C115.633 22.5277 115.793 22.8162 115.909 23.0983C116.024 23.3804 116.274 23.8997 116.46 24.2523C117.146 25.5344 118.153 28.3296 118.704 30.4645C119.41 33.2084 119.762 35.5291 119.89 38.3564C119.98 40.2284 119.999 40.3694 120.006 39.2218C120.038 36.4395 119.493 32.7852 118.576 29.599C117.518 25.9383 115.883 22.3674 113.825 19.2389C113.492 18.7324 113.235 18.2837 113.255 18.2516C113.331 18.1362 112.421 16.8925 110.85 14.9628C110.741 14.8282 110.825 14.873 111.107 15.1102C111.581 15.5013 111.664 15.4564 111.37 14.9692L111.171 14.6358L111.466 14.9564C111.953 15.4757 113.21 17.0656 113.876 18.0016C115.947 20.9122 117.736 24.3164 118.909 27.586C119.089 28.0796 119.269 28.5732 119.307 28.6758L119.378 28.8681L119.352 28.6438C119.339 28.522 119.147 27.9129 118.929 27.2975C116.96 21.7904 113.819 16.8091 109.696 12.6741C108.388 11.3662 107.689 10.738 106.234 9.57117C104.657 8.30822 103.887 7.74405 102.579 6.87858C97.0463 3.2051 90.8463 1.1023 84.1656 0.627894C82.7807 0.53173 79.9596 0.550964 78.5298 0.666362C73.7148 1.05102 68.9575 2.34603 64.6297 4.44882C60.9303 6.24389 57.1731 8.79545 54.4483 11.3598C54.0828 11.6996 53.7751 11.9753 53.7622 11.9753C53.6532 11.9753 53.9995 11.5265 54.4162 11.1354C56.9744 8.69287 60.7379 6.10926 64.1296 4.47447C69.5409 1.8588 75.1382 0.557374 81.2932 0.467621C87.5444 0.384279 93.475 1.69211 99.1428 4.41036C104.92 7.17989 109.921 11.2829 113.819 16.4629C118.14 22.2008 120.756 28.6245 121.622 35.6317C121.807 37.1575 121.949 38.0679 122.006 38.0999C122.199 38.2153 122.109 36.0933 121.846 34.3303C120.852 27.5667 118.153 21.1814 114.03 15.8219C109.953 10.52 104.496 6.24389 98.3478 3.52564C91.2438 0.384277 83.7296 -0.62224 75.8434 0.506088C71.2207 1.16642 66.2198 2.86532 62.0972 5.17967C56.9616 8.05178 52.8133 11.7124 49.1844 16.5591C46.4211 20.2454 44.177 24.8613 42.8563 29.5734C41.8625 33.125 41.4265 36.3241 41.3239 40.8246C41.3175 41.299 41.3111 40.6643 41.3239 39.4142C41.3303 37.8948 41.3752 36.8049 41.4393 36.1446C42.1318 29.458 44.1001 23.6817 47.5751 18.1362C47.9598 17.5208 48.2676 17.0079 48.2483 16.9951C48.2035 16.9438 47.7803 17.5143 47.261 18.3221C44.1129 23.2522 42.1061 28.8553 41.3239 34.8624C41.0162 37.2344 40.9072 40.8246 41.0867 42.9722C41.4714 47.6971 42.478 51.8771 44.1706 55.7942C44.3501 56.2173 44.5874 56.8199 44.6964 57.134C45.6837 60.0703 48.1393 64.1605 50.8386 67.3659C51.7811 68.4814 53.7815 70.4881 54.8458 71.3664C56.6859 72.8922 58.8978 74.4436 60.1994 75.1168C62.8666 76.4887 63.9373 76.9888 65.6491 77.6555C66.1236 77.8414 66.9763 78.1812 67.5405 78.4056C70.6116 79.6557 74.0803 80.4699 78.0233 80.8674C79.498 81.0148 83.5629 81.0469 85.0439 80.9251ZM96.5205 77.7068C100.912 75.963 105.215 73.3794 108.606 70.4496C109.517 69.661 111.177 68.0455 112.068 67.0774C112.652 66.4427 112.639 66.494 112.011 67.2698C110.337 69.3341 107.087 72.0716 103.958 74.0461C101.791 75.4181 98.8287 76.9375 97.0334 77.5978C96.4564 77.8094 96.0332 77.8991 96.5205 77.7068ZM101.739 74.0077C101.784 73.9564 102.079 73.7576 102.406 73.5653C104.9 72.078 107.907 69.6739 109.792 67.6737C110.478 66.9428 112.434 65.058 112.171 65.3785C112.075 65.5003 111.607 66.0196 111.139 66.5325C108.632 69.2636 105.727 71.6484 102.49 73.6294C102.066 73.8859 101.707 74.0974 101.695 74.0974C101.675 74.0974 101.701 74.059 101.739 74.0077ZM115.659 60.8588C115.659 60.846 115.774 60.6408 115.915 60.41C116.242 59.8779 116.794 58.7817 117.255 57.7431C117.454 57.3007 117.678 56.8776 117.749 56.8007C117.999 56.5314 119.422 53.2554 119.826 52.0117C119.961 51.5822 120.083 51.3514 120.083 51.5116C120.083 51.7553 119.185 54.2171 118.64 55.48C117.993 56.9802 116.948 58.9483 115.941 60.5895C115.781 60.846 115.659 60.9678 115.659 60.8588ZM118.454 54.7556C118.98 53.499 119.852 50.877 120.166 49.6076C120.403 48.6459 120.692 47.0688 120.91 45.5815C120.98 45.1135 121.064 44.6904 121.096 44.6519C121.128 44.607 121.173 44.5173 121.192 44.4468C121.269 44.1839 121.16 45.0622 120.942 46.4726C120.705 48.0433 120.403 49.3511 119.897 51.0244C119.422 52.6143 118.3 55.5698 118.243 55.3967C118.23 55.3582 118.326 55.0697 118.454 54.7556ZM121.897 46.0687C121.916 46.0174 121.936 46.0367 121.936 46.1072C121.942 46.1777 121.923 46.2162 121.904 46.1905C121.884 46.1713 121.878 46.1136 121.897 46.0687ZM121.077 43.78C121.102 43.6198 121.141 43.5236 121.153 43.5685C121.173 43.6133 121.166 43.8185 121.134 44.0172C121.102 44.248 121.077 44.325 121.057 44.2288C121.044 44.1455 121.051 43.9403 121.077 43.78ZM107.093 11.5201C103.272 8.16718 98.8158 5.62203 93.988 4.0257C91.7183 3.27562 89.1345 2.70504 86.4673 2.35885C85.5697 2.24345 85.2042 2.17293 84.4669 1.9806C84.1014 1.88444 84.999 1.94214 86.3326 2.10241C94.9689 3.1474 102.913 7.01962 108.831 13.0716L109.6 13.8601L108.728 13.0267C108.254 12.5651 107.516 11.8919 107.093 11.5201ZM86.7237 4.23726C86.7686 4.22444 86.8584 4.22444 86.9161 4.23726C86.9802 4.25649 86.9417 4.26932 86.8391 4.26932C86.7302 4.26932 86.6853 4.25649 86.7237 4.23726Z" fill="url(#paint6_angular_3_44)"/>
<path d="M49.3704 15.4565C52.1145 11.9689 55.2754 9.05195 58.9492 6.6222C64.0655 3.23081 69.7974 1.05749 75.7152 0.249715C76.9975 0.0702084 77.177 0.0381571 77.0744 0.00610235C76.9462 -0.0451852 74.9522 0.236895 73.6956 0.4741C67.6111 1.6473 61.9177 4.17322 56.8975 7.94286C54.6599 9.61611 52.5569 11.5714 50.7232 13.6678C49.9026 14.6102 48.9537 15.8155 48.9985 15.8604C49.0114 15.8796 49.1845 15.6937 49.3704 15.4565Z" fill="url(#paint7_angular_3_44)"/>
<path d="M212.7 114C211.633 114 210.7 113.633 209.9 112.9C209.167 112.1 208.8 111.167 208.8 110.1V35.9H216.6V110.1C216.6 111.167 216.233 112.1 215.5 112.9C214.767 113.633 213.833 114 212.7 114ZM185.1 43C184.033 43 183.167 42.6667 182.5 42C181.833 41.3333 181.5 40.5 181.5 39.5C181.5 38.4333 181.833 37.5667 182.5 36.9C183.167 36.2333 184.033 35.9 185.1 35.9H240.4C241.467 35.9 242.333 36.2333 243 36.9C243.667 37.5667 244 38.4333 244 39.5C244 40.5 243.667 41.3333 243 42C242.333 42.6667 241.467 43 240.4 43H185.1ZM258.427 91.7C257.227 91.7 256.261 91.3333 255.527 90.6C254.861 89.8667 254.527 88.9333 254.527 87.8V39.8C254.527 38.6 254.861 37.6667 255.527 37C256.261 36.2667 257.227 35.9 258.427 35.9C259.561 35.9 260.461 36.2667 261.127 37C261.861 37.6667 262.227 38.6 262.227 39.8V87.8C262.227 88.9333 261.861 89.8667 261.127 90.6C260.461 91.3333 259.561 91.7 258.427 91.7ZM301.427 114C300.294 114 299.361 113.633 298.627 112.9C297.894 112.167 297.527 111.267 297.527 110.2V84.2C297.527 80.0667 296.727 76.6667 295.127 74C293.594 71.3333 291.461 69.3333 288.727 68C286.061 66.6667 283.027 66 279.627 66C276.361 66 273.394 66.6333 270.727 67.9C268.127 69.1667 266.061 70.9 264.527 73.1C262.994 75.3 262.227 77.8 262.227 80.6H256.727C256.861 76.4 257.994 72.6667 260.127 69.4C262.261 66.0667 265.094 63.4667 268.627 61.6C272.161 59.6667 276.094 58.7 280.427 58.7C285.161 58.7 289.394 59.7 293.127 61.7C296.861 63.6333 299.794 66.5 301.927 70.3C304.127 74.1 305.227 78.7333 305.227 84.2V110.2C305.227 111.267 304.861 112.167 304.127 112.9C303.394 113.633 302.494 114 301.427 114ZM258.427 114C257.227 114 256.261 113.667 255.527 113C254.861 112.267 254.527 111.333 254.527 110.2V63.2C254.527 62 254.861 61.0667 255.527 60.4C256.261 59.6667 257.227 59.3 258.427 59.3C259.561 59.3 260.461 59.6667 261.127 60.4C261.861 61.0667 262.227 62 262.227 63.2V110.2C262.227 111.333 261.861 112.267 261.127 113C260.461 113.667 259.561 114 258.427 114ZM347.003 114.5C341.603 114.5 336.803 113.333 332.603 111C328.47 108.6 325.203 105.3 322.803 101.1C320.47 96.9 319.303 92.1 319.303 86.7C319.303 81.2333 320.403 76.4333 322.603 72.3C324.87 68.1 327.97 64.8 331.903 62.4C335.836 60 340.37 58.8 345.503 58.8C350.57 58.8 354.97 59.9667 358.703 62.3C362.503 64.5667 365.436 67.7333 367.503 71.8C369.57 75.8667 370.603 80.5 370.603 85.7C370.603 86.7667 370.27 87.6333 369.603 88.3C368.936 88.9 368.07 89.2 367.003 89.2H324.503V82.8H367.803L363.503 85.9C363.57 82.0333 362.87 78.5667 361.403 75.5C359.936 72.4333 357.836 70.0333 355.103 68.3C352.436 66.5667 349.236 65.7 345.503 65.7C341.703 65.7 338.37 66.6 335.503 68.4C332.636 70.2 330.403 72.7 328.803 75.9C327.27 79.0333 326.503 82.6333 326.503 86.7C326.503 90.7667 327.37 94.3667 329.103 97.5C330.903 100.633 333.336 103.1 336.403 104.9C339.47 106.7 343.003 107.6 347.003 107.6C349.403 107.6 351.803 107.2 354.203 106.4C356.67 105.533 358.636 104.467 360.103 103.2C360.836 102.6 361.67 102.3 362.603 102.3C363.536 102.233 364.336 102.467 365.003 103C365.87 103.8 366.303 104.667 366.303 105.6C366.37 106.533 366.003 107.333 365.203 108C363.003 109.867 360.203 111.433 356.803 112.7C353.403 113.9 350.136 114.5 347.003 114.5ZM448.726 114C447.726 114 446.859 113.633 446.126 112.9C445.392 112.167 445.026 111.233 445.026 110.1V95.3H409.226C408.159 95.3 407.259 94.9667 406.526 94.3C405.859 93.5667 405.459 92.7333 405.326 91.8C405.259 90.8667 405.526 90 406.126 89.2L445.726 37.4C446.059 36.9333 446.459 36.5667 446.926 36.3C447.459 35.9667 448.126 35.8 448.926 35.8C449.992 35.8 450.859 36.2 451.526 37C452.259 37.7333 452.626 38.6667 452.626 39.8V88.3H460.526C461.592 88.3 462.492 88.5667 463.226 89.1C463.959 89.6333 464.326 90.5667 464.326 91.9C464.326 92.7667 463.959 93.5667 463.226 94.3C462.492 94.9667 461.592 95.3 460.526 95.3H452.626V110.1C452.626 111.233 452.259 112.167 451.526 112.9C450.792 113.633 449.859 114 448.726 114ZM413.426 91.3L412.026 88.3H445.026V45.4L447.026 47.5L413.426 91.3ZM511.869 114C510.735 114 509.802 113.633 509.069 112.9C508.335 112.167 507.969 111.233 507.969 110.1V39.8C507.969 38.6667 508.335 37.7333 509.069 37C509.802 36.2667 510.735 35.9 511.869 35.9H530.569C535.435 35.9 539.769 36.9333 543.569 39C547.369 41 550.335 43.8333 552.469 47.5C554.669 51.1 555.769 55.2667 555.769 60C555.769 64.5333 554.669 68.5667 552.469 72.1C550.335 75.6333 547.369 78.4 543.569 80.4C539.769 82.4 535.435 83.4 530.569 83.4H515.769V110.1C515.769 111.233 515.402 112.167 514.669 112.9C513.935 113.633 513.002 114 511.869 114ZM553.669 114C552.802 114 552.102 113.833 551.569 113.5C551.102 113.167 550.669 112.667 550.269 112L531.069 81.4L538.869 79.4L556.769 108C557.769 109.6 557.935 111 557.269 112.2C556.669 113.4 555.469 114 553.669 114ZM515.769 75.9H530.569C533.969 75.9 536.969 75.2333 539.569 73.9C542.235 72.5 544.335 70.6 545.869 68.2C547.402 65.8 548.169 63.0667 548.169 60C548.169 56.7333 547.402 53.8667 545.869 51.4C544.335 48.8667 542.235 46.9 539.569 45.5C536.969 44.1 533.969 43.4 530.569 43.4H515.769V75.9ZM574.285 114C573.085 114 572.118 113.667 571.385 113C570.718 112.267 570.385 111.3 570.385 110.1V63.2C570.385 62 570.718 61.0667 571.385 60.4C572.118 59.6667 573.085 59.3 574.285 59.3C575.418 59.3 576.318 59.6667 576.985 60.4C577.718 61.0667 578.085 62 578.085 63.2V110.1C578.085 111.3 577.718 112.267 576.985 113C576.318 113.667 575.418 114 574.285 114ZM574.185 48.9C572.718 48.9 571.452 48.3667 570.385 47.3C569.318 46.2333 568.785 44.9333 568.785 43.4C568.785 41.7333 569.318 40.4333 570.385 39.5C571.518 38.5 572.818 38 574.285 38C575.685 38 576.918 38.5 577.985 39.5C579.118 40.4333 579.685 41.7333 579.685 43.4C579.685 44.9333 579.152 46.2333 578.085 47.3C577.018 48.3667 575.718 48.9 574.185 48.9ZM644.591 114C643.458 114 642.525 113.633 641.791 112.9C641.058 112.167 640.691 111.267 640.691 110.2V84.2C640.691 80.0667 639.891 76.6667 638.291 74C636.758 71.3333 634.625 69.3333 631.891 68C629.225 66.6667 626.191 66 622.791 66C619.525 66 616.558 66.6333 613.891 67.9C611.291 69.1667 609.225 70.9 607.691 73.1C606.158 75.3 605.391 77.8 605.391 80.6H599.891C600.025 76.4 601.158 72.6667 603.291 69.4C605.425 66.0667 608.258 63.4667 611.791 61.6C615.325 59.6667 619.258 58.7 623.591 58.7C628.325 58.7 632.558 59.7 636.291 61.7C640.025 63.6333 642.958 66.5 645.091 70.3C647.291 74.1 648.391 78.7333 648.391 84.2V110.2C648.391 111.267 648.025 112.167 647.291 112.9C646.558 113.633 645.658 114 644.591 114ZM601.591 114C600.391 114 599.425 113.667 598.691 113C598.025 112.267 597.691 111.333 597.691 110.2V63.2C597.691 62 598.025 61.0667 598.691 60.4C599.425 59.6667 600.391 59.3 601.591 59.3C602.725 59.3 603.625 59.6667 604.291 60.4C605.025 61.0667 605.391 62 605.391 63.2V110.2C605.391 111.333 605.025 112.267 604.291 113C603.625 113.667 602.725 114 601.591 114ZM689.467 114.5C684.201 114.5 679.534 113.333 675.467 111C671.401 108.6 668.201 105.3 665.867 101.1C663.601 96.9 662.467 92.1 662.467 86.7C662.467 81.2333 663.667 76.4 666.067 72.2C668.467 68 671.767 64.7333 675.967 62.4C680.167 60 684.934 58.8 690.267 58.8C695.667 58.8 700.434 60 704.567 62.4C708.767 64.7333 712.034 68 714.367 72.2C716.767 76.4 718.001 81.2333 718.067 86.7L713.567 89.1C713.567 94.0333 712.534 98.4333 710.467 102.3C708.401 106.1 705.534 109.1 701.867 111.3C698.267 113.433 694.134 114.5 689.467 114.5ZM690.467 135.6C685.201 135.6 680.567 134.6 676.567 132.6C672.567 130.667 669.267 128 666.667 124.6C665.934 123.8 665.601 122.933 665.667 122C665.801 121.067 666.301 120.3 667.167 119.7C668.034 119.1 669.001 118.9 670.067 119.1C671.134 119.3 671.967 119.8 672.567 120.6C674.501 123 676.967 124.933 679.967 126.4C683.034 127.867 686.567 128.6 690.567 128.6C694.301 128.6 697.667 127.7 700.667 125.9C703.667 124.1 706.034 121.567 707.767 118.3C709.567 115.033 710.467 111.2 710.467 106.8V91.6L713.367 85.8L718.067 86.7V107.1C718.067 112.5 716.867 117.333 714.467 121.6C712.067 125.933 708.801 129.333 704.667 131.8C700.534 134.333 695.801 135.6 690.467 135.6ZM690.267 107.5C694.201 107.5 697.667 106.633 700.667 104.9C703.734 103.1 706.134 100.633 707.867 97.5C709.601 94.3667 710.467 90.7667 710.467 86.7C710.467 82.6333 709.601 79.0333 707.867 75.9C706.134 72.7 703.734 70.2333 700.667 68.5C697.667 66.7 694.201 65.8 690.267 65.8C686.334 65.8 682.834 66.7 679.767 68.5C676.701 70.2333 674.301 72.7 672.567 75.9C670.834 79.0333 669.967 82.6333 669.967 86.7C669.967 90.7667 670.834 94.3667 672.567 97.5C674.301 100.633 676.701 103.1 679.767 104.9C682.834 106.633 686.334 107.5 690.267 107.5ZM752.143 114.5C748.21 114.5 744.31 113.833 740.443 112.5C736.576 111.167 733.443 109.167 731.043 106.5C730.31 105.7 730.01 104.8 730.143 103.8C730.276 102.8 730.776 101.933 731.643 101.2C732.576 100.533 733.543 100.267 734.543 100.4C735.543 100.533 736.376 100.967 737.043 101.7C738.643 103.567 740.743 105 743.343 106C746.01 107 748.943 107.5 752.143 107.5C757.076 107.5 760.643 106.667 762.843 105C765.043 103.267 766.176 101.2 766.243 98.8C766.243 96.4 765.11 94.4333 762.843 92.9C760.576 91.3 756.843 90.0667 751.643 89.2C744.91 88.1333 739.976 86.2667 736.843 83.6C733.71 80.9333 732.143 77.7667 732.143 74.1C732.143 70.7 733.043 67.8667 734.843 65.6C736.643 63.3333 739.043 61.6333 742.043 60.5C745.043 59.3667 748.343 58.8 751.943 58.8C756.41 58.8 760.243 59.5667 763.443 61.1C766.71 62.6333 769.343 64.7 771.343 67.3C772.01 68.1667 772.276 69.0667 772.143 70C772.01 70.9333 771.476 71.7 770.543 72.3C769.743 72.7667 768.81 72.9333 767.743 72.8C766.743 72.6 765.876 72.1 765.143 71.3C763.476 69.3667 761.543 67.9667 759.343 67.1C757.143 66.1667 754.61 65.7 751.743 65.7C748.076 65.7 745.143 66.4667 742.943 68C740.743 69.4667 739.643 71.3333 739.643 73.6C739.643 75.1333 740.043 76.4667 740.843 77.6C741.71 78.7333 743.143 79.7333 745.143 80.6C747.21 81.4667 750.076 82.2 753.743 82.8C758.743 83.6 762.676 84.8 765.543 86.4C768.476 87.9333 770.543 89.7667 771.743 91.9C773.01 93.9667 773.643 96.2333 773.643 98.7C773.643 101.833 772.71 104.6 770.843 107C769.043 109.333 766.51 111.167 763.243 112.5C760.043 113.833 756.343 114.5 752.143 114.5Z" fill="url(#paint8_linear_3_44)"/>
<defs>
<radialGradient id="paint0_angular_3_44" cx="0" cy="0" r="1" gradientUnits="userSpaceOnUse" gradientTransform="translate(82 82) rotate(180) scale(147)">
<stop stop-color="#A8996A"/>
<stop offset="1" stop-color="#685F42"/>
</radialGradient>
<radialGradient id="paint1_angular_3_44" cx="0" cy="0" r="1" gradientUnits="userSpaceOnUse" gradientTransform="translate(82 82) rotate(180) scale(147)">
<stop stop-color="#A8996A"/>
<stop offset="1" stop-color="#685F42"/>
</radialGradient>
<radialGradient id="paint2_angular_3_44" cx="0" cy="0" r="1" gradientUnits="userSpaceOnUse" gradientTransform="translate(82 82) rotate(180) scale(147)">
<stop stop-color="#A8996A"/>
<stop offset="1" stop-color="#685F42"/>
</radialGradient>
<radialGradient id="paint3_angular_3_44" cx="0" cy="0" r="1" gradientUnits="userSpaceOnUse" gradientTransform="translate(82 82) rotate(180) scale(147)">
<stop stop-color="#A8996A"/>
<stop offset="1" stop-color="#685F42"/>
</radialGradient>
<radialGradient id="paint4_angular_3_44" cx="0" cy="0" r="1" gradientUnits="userSpaceOnUse" gradientTransform="translate(82 82) rotate(180) scale(147)">
<stop stop-color="#A8996A"/>
<stop offset="1" stop-color="#685F42"/>
</radialGradient>
<radialGradient id="paint5_angular_3_44" cx="0" cy="0" r="1" gradientUnits="userSpaceOnUse" gradientTransform="translate(82 82) rotate(180) scale(147)">
<stop stop-color="#A8996A"/>
<stop offset="1" stop-color="#685F42"/>
</radialGradient>
<radialGradient id="paint6_angular_3_44" cx="0" cy="0" r="1" gradientUnits="userSpaceOnUse" gradientTransform="translate(82 82) rotate(180) scale(147)">
<stop stop-color="#A8996A"/>
<stop offset="1" stop-color="#685F42"/>
</radialGradient>
<radialGradient id="paint7_angular_3_44" cx="0" cy="0" r="1" gradientUnits="userSpaceOnUse" gradientTransform="translate(82 82) rotate(180) scale(147)">
<stop stop-color="#A8996A"/>
<stop offset="1" stop-color="#685F42"/>
</radialGradient>
<linearGradient id="paint8_linear_3_44" x1="479" y1="26" x2="479" y2="138" gradientUnits="userSpaceOnUse">
<stop stop-color="#132B69"/>
<stop offset="1" stop-color="#0B1737"/>
</linearGradient>
</defs>
</svg>
